<svg xmlns="http://www.w3.org/2000/svg" viewBox="0 0 200 64" width="200" height="64">
  <!-- IBM 8-bar logo, three columns (I, B, M) -->

  <!-- I -->
  <rect x="0"  y="0"  width="48" height="8"  fill="#0f62fe"/>
  <rect x="0"  y="14" width="48" height="8"  fill="#0f62fe"/>
  <rect x="12" y="28" width="24" height="8"  fill="#0f62fe"/>
  <rect x="12" y="42" width="24" height="8"  fill="#0f62fe"/>
  <rect x="0"  y="56" width="48" height="8"  fill="#0f62fe"/>

  <!-- B -->
  <rect x="60" y="0"  width="48" height="8"  fill="#0f62fe"/>
  <rect x="60" y="14" width="48" height="8"  fill="#0f62fe"/>
  <rect x="72" y="28" width="24" height="8"  fill="#0f62fe"/>
  <rect x="60" y="42" width="48" height="8"  fill="#0f62fe"/>
  <rect x="60" y="56" width="48" height="8"  fill="#0f62fe"/>

  <!-- M -->
  <rect x="120" y="0"  width="48" height="8"  fill="#0f62fe"/>
  <rect x="120" y="14" width="48" height="8"  fill="#0f62fe"/>
  <rect x="132" y="28" width="24" height="8"  fill="#0f62fe"/>
  <rect x="132" y="42" width="24" height="8"  fill="#0f62fe"/>
  <rect x="120" y="56" width="48" height="8"  fill="#0f62fe"/>
</svg>
